<svg xmlns="http://www.w3.org/2000/svg" viewBox="0 0 32 32" width="32" height="32">
  <defs>
    <linearGradient id="faviconGradient" x1="0%" y1="0%" x2="100%" y2="100%">
      <stop offset="0%" style="stop-color:#7c3aed;stop-opacity:1" />
      <stop offset="100%" style="stop-color:#9333ea;stop-opacity:1" />
    </linearGradient>
  </defs>
  
  <!-- Background -->
  <rect width="32" height="32" rx="6" fill="url(#faviconGradient)"/>
  
  <!-- Sparkles Icon -->
  <path d="M16 4 L17.5 9.5 L23 11 L17.5 12.5 L16 18 L14.5 12.5 L9 11 L14.5 9.5 L16 4 Z" fill="white" opacity="0.9"/>
  <path d="M22 20 L22.5 22 L24.5 22.5 L22.5 23 L22 25 L21.5 23 L19.5 22.5 L21.5 22 L22 20 Z" fill="white" opacity="0.7"/>
  <path d="M10 20 L10.4 21.5 L12 22 L10.4 22.5 L10 24 L9.6 22.5 L8 22 L9.6 21.5 L10 20 Z" fill="white" opacity="0.7"/>
</svg>
