<svg xmlns="http://www.w3.org/2000/svg" viewBox="0 0 32 32" width="32" height="32">
  <defs>
    <linearGradient id="faviconGradient" x1="0%" y1="0%" x2="100%" y2="100%">
      <stop offset="0%" style="stop-color:#4f46e5;stop-opacity:1" />
      <stop offset="100%" style="stop-color:#2563eb;stop-opacity:1" />
    </linearGradient>
  </defs>
  
  <!-- Background -->
  <rect width="32" height="32" rx="6" fill="url(#faviconGradient)"/>
  
  <!-- Simplified Brain -->
  <path d="M8 12 C6 10, 6 8, 8 7 C10 6, 12 7, 14 9 C16 7, 18 7, 20 8 C22 7, 24 8, 26 10 C26 12, 25 14, 23 15 C25 16, 26 18, 25 20 C26 22, 24 24, 22 25 C20 26, 18 25, 16 23 C14 25, 12 25, 10 24 C8 25, 6 23, 6 21 C6 19, 7 17, 9 16 C7 15, 6 13, 8 12 Z" 
        fill="white" opacity="0.9"/>
  
  <!-- Simple Circuit -->
  <g stroke="#06b6d4" stroke-width="1" fill="none" opacity="0.8">
    <line x1="12" y1="14" x2="20" y2="14"/>
    <line x1="12" y1="18" x2="20" y2="18"/>
    <line x1="16" y1="12" x2="16" y2="20"/>
  </g>
  
  <!-- Circuit Nodes -->
  <g fill="#06b6d4">
    <circle cx="16" cy="14" r="1"/>
    <circle cx="16" cy="18" r="1"/>
  </g>
</svg>